# xmcd
#
# Track frame offsets: 
#        150
#        22168
#        38192
#        66302
#        90213
#        114466
#        132850
#        146926
#        164115
#        184147
#        207587
#        221866
#        234165
#        254153
#
# Disc length: 3613 seconds
#
# Revision: 0
# Processed by: cddbd v1.5.2PL0 Copyright (c) Steve Scherf et al.
# Submitted via: ExactAudioCopy v0.95a5
#
DISCID=de0e1b0e
DTITLE=JODY WILLIAMS - You Left Me InThe Dark
DYEAR=2004
DGENRE=Blues
TTITLE0=You Left Me In the Dark
TTITLE1=I Can't Get You Off My Mind
TTITLE2=Don't Get Caught Sleeping In My Bed
TTITLE3=She's Got a Spell On Me
TTITLE4=I'll Be There
TTITLE5=Good Things
TTITLE6=What Kind Of Gal Is That
TTITLE7=Hideout
TTITLE8=Young Men Don't Know
TTITLE9=Someone Else
TTITLE10=I Make Money
TTITLE11=Looking For My Baby
TTITLE12=Nothing Can Change This Love
TTITLE13=I've Been Watching You
EXTD=
EXTT0=
EXTT1=
EXTT2=
EXTT3=
EXTT4=
EXTT5=
EXTT6=
EXTT7=
EXTT8=
EXTT9=
EXTT10=
EXTT11=
EXTT12=
EXTT13=
PLAYORDER=
